<svg version="1.1" xmlns="http://www.w3.org/2000/svg" xmlns:xlink="http://www.w3.org/1999/xlink" width="58.99px" height="59.144px" viewBox="0,0,255.33334,256"><g fill="#ffffff" fill-rule="nonzero" stroke="none" stroke-width="1" stroke-linecap="butt" stroke-linejoin="miter" stroke-miterlimit="10" stroke-dasharray="" stroke-dashoffset="0" font-family="none" font-weight="none" font-size="none" text-anchor="none" style="mix-blend-mode: normal"><g transform="scale(4.32842,4.32842)"><path d="M22.5293,0.03516c-12.407,0 -22.5,10.093 -22.5,22.5c0,12.407 10.093,22.5 22.5,22.5c5.845,0 11.17273,-2.24025 15.17773,-5.90625l2.91602,2.91602c-1.216,1.806 -1.03155,4.28291 0.56445,5.87891l9.90039,9.89844c0.906,0.906 2.0942,1.35742 3.2832,1.35742c1.19,0 2.38111,-0.45338 3.28711,-1.35938c0.877,-0.877 1.36133,-2.04416 1.36133,-3.28516c0.001,-1.241 -0.48333,-2.4062 -1.36133,-3.2832l-9.89844,-9.90039c-1.54,-1.54 -3.89564,-1.75669 -5.68164,-0.67969l-2.95703,-2.95703c3.667,-4.004 5.9082,-9.33469 5.9082,-15.17969c0,-12.407 -10.093,-22.5 -22.5,-22.5zM22.5293,5.03516c9.649,0 17.5,7.851 17.5,17.5c0,9.649 -7.851,17.5 -17.5,17.5c-9.649,0 -17.5,-7.851 -17.5,-17.5c0,-9.649 7.851,-17.5 17.5,-17.5zM22.5293,7.03516c-8.55973,0.00097 -15.49824,6.94027 -15.49824,15.5c0,8.55973 6.93851,15.49903 15.49824,15.5c8.55973,-0.00097 15.49824,-6.94027 15.49824,-15.5c0,-8.55973 -6.93851,-15.49903 -15.49824,-15.5z"></path></g></g></svg>